<svg width="2056" height="520" viewBox="0 0 2056 520" fill="none" xmlns="http://www.w3.org/2000/svg">
<path d="M31.4844 358.879C21.7188 353.345 14.2318 345.533 9.02344 335.441C3.8151 325.35 0.885417 315.747 0.234375 306.633C1.21094 298.82 3.32682 292.798 6.58203 288.566C9.51172 284.009 13.0924 280.428 17.3242 277.824C21.556 274.895 25.9505 272.779 30.5078 271.477C35.0651 269.849 39.4596 268.547 43.6914 267.57L51.0156 270.012C52.6432 271.639 54.2708 273.104 55.8984 274.406C57.8516 275.708 59.6419 277.01 61.2695 278.312C64.5247 277.01 66.4779 275.057 67.1289 272.453C68.1055 269.849 69.082 267.245 70.0586 264.641C71.0352 261.06 72.1745 257.479 73.4766 253.898C74.7786 250.318 76.4062 246.737 78.3594 243.156C78.0339 240.227 78.1966 237.622 78.8477 235.344C79.4987 233.065 80.1497 231.112 80.8008 229.484C78.8477 227.857 77.3828 227.043 76.4062 227.043C75.7552 226.717 74.4531 226.229 72.5 225.578C71.5234 225.578 70.5469 225.578 69.5703 225.578C68.5938 225.253 67.4544 224.927 66.1523 224.602C61.2695 221.021 58.0143 218.091 56.3867 215.812C55.0846 213.208 53.6198 210.604 51.9922 208C50.3646 205.396 48.8997 203.117 47.5977 201.164C46.2956 199.211 44.8307 197.421 43.2031 195.793L37.3438 191.887L40.2734 186.027C40.9245 185.376 41.25 184.562 41.25 183.586C41.25 182.284 40.599 180.493 39.2969 178.215C38.3203 173.983 38.1576 170.891 38.8086 168.938L39.7852 163.078C43.0404 158.846 44.8307 156.405 45.1562 155.754L50.0391 150.871C57.526 148.918 65.1758 146.802 72.9883 144.523C80.8008 141.919 88.4505 139.315 95.9375 136.711C103.424 134.107 111.074 131.503 118.887 128.898C126.699 126.294 134.512 124.016 142.324 122.062C144.928 119.784 147.695 118.482 150.625 118.156C153.88 117.505 156.81 117.017 159.414 116.691C161.693 116.691 163.809 116.529 165.762 116.203C167.715 115.878 169.18 115.064 170.156 113.762C175.69 111.809 181.061 110.181 186.27 108.879C196.035 106.275 208.893 103.182 224.844 99.6016C240.794 96.0208 258.698 93.4167 278.555 91.7891L288.809 91.3008C290.762 91.6263 292.715 91.7891 294.668 91.7891C296.621 91.4635 298.574 91.3008 300.527 91.3008C317.454 91.3008 328.685 96.5091 334.219 106.926C337.474 108.553 340.404 110.669 343.008 113.273C345.612 115.552 348.053 117.831 350.332 120.109C351.96 121.737 353.424 123.202 354.727 124.504C356.029 125.48 357.168 126.294 358.145 126.945L362.051 130.852C365.632 138.664 366.283 146.314 364.004 153.801C362.051 157.707 359.935 159.986 357.656 160.637C355.378 161.288 353.099 161.939 350.82 162.59L344.473 166.008C340.241 165.682 336.986 165.52 334.707 165.52C332.754 165.52 330.475 165.52 327.871 165.52C318.105 165.52 306.712 166.171 293.691 167.473C280.996 168.449 267.975 170.077 254.629 172.355C241.283 174.309 228.262 176.913 215.566 180.168C202.871 183.098 191.803 186.353 182.363 189.934C179.759 191.887 176.341 193.677 172.109 195.305C171.133 195.63 169.668 196.444 167.715 197.746C168.04 200.35 168.04 202.954 167.715 205.559C167.389 207.837 166.901 210.116 166.25 212.395C165.924 214.022 165.599 215.812 165.273 217.766C165.273 219.393 165.111 221.184 164.785 223.137C157.949 231.275 154.694 240.878 155.02 251.945L152.578 256.828C151.276 258.13 150.137 260.083 149.16 262.688C148.509 264.966 148.509 267.408 149.16 270.012L151.113 275.871C157.624 275.22 163.971 274.569 170.156 273.918C176.667 272.941 183.503 271.965 190.664 270.988C199.779 269.361 208.893 268.059 218.008 267.082C227.448 265.78 237.214 265.129 247.305 265.129H266.348L261.953 269.523L267.324 270.012L264.395 277.824C266.673 278.801 268.301 279.615 269.277 280.266C270.579 280.591 271.719 281.079 272.695 281.73L276.113 286.613C277.741 287.59 279.206 289.217 280.508 291.496C281.81 293.449 282.624 296.216 282.949 299.797L281.484 304.68L258.535 333.977L255.605 337.883L250.723 336.418C244.538 336.092 238.678 336.743 233.145 338.371C230.54 339.022 227.773 339.836 224.844 340.812C221.914 341.464 218.984 341.789 216.055 341.789C208.242 343.091 201.732 344.23 196.523 345.207C191.315 345.858 186.107 346.509 180.898 347.16C173.737 348.462 166.738 349.764 159.902 351.066C153.392 352.043 147.207 353.671 141.348 355.949C137.767 356.275 135.651 356.438 135 356.438C134.349 356.112 133.698 355.949 133.047 355.949C129.792 355.949 126.536 356.438 123.281 357.414C120.026 358.391 116.934 359.367 114.004 360.344C112.051 361.971 110.749 363.762 110.098 365.715C109.447 367.342 108.796 369.133 108.145 371.086C107.493 373.365 106.517 375.643 105.215 377.922C104.238 379.875 102.936 381.991 101.309 384.27L101.797 393.059C98.8672 393.71 97.4023 394.198 97.4023 394.523C97.4023 394.523 97.2396 394.523 96.9141 394.523C96.9141 397.128 96.4258 399.569 95.4492 401.848C94.7982 404.126 94.1471 406.242 93.4961 408.195C92.8451 409.497 92.3568 410.637 92.0312 411.613C91.7057 412.59 91.543 413.566 91.543 414.543C94.7982 420.402 95.612 427.076 93.9844 434.562C92.6823 440.747 90.2409 446.281 86.6602 451.164C83.0794 455.721 78.8477 459.302 73.9648 461.906C68.7565 462.557 64.8503 462.395 62.2461 461.418C59.9674 460.441 57.526 459.465 54.9219 458.488C53.2943 457.837 51.6667 457.349 50.0391 457.023C48.4115 456.372 46.7839 455.884 45.1562 455.559L39.2969 450.676C38.3203 448.723 37.181 446.932 35.8789 445.305C34.5768 443.352 33.2747 441.398 31.9727 439.445C30.3451 437.167 28.7174 434.888 27.0898 432.609C25.4622 430.331 23.9974 427.727 22.6953 424.797C20.4167 413.404 19.9284 403.964 21.2305 396.477C22.8581 388.664 24.974 381.014 27.5781 373.527C28.2292 370.923 28.8802 368.482 29.5312 366.203C30.1823 363.924 30.8333 361.483 31.4844 358.879ZM346.211 407.219C342.63 420.24 339.375 430.168 336.445 437.004C333.841 443.514 329.772 450.35 324.238 457.512C320.007 456.861 317.077 457.349 315.449 458.977C313.822 460.604 312.031 462.069 310.078 463.371C307.148 464.022 305.033 464.022 303.73 463.371C302.428 462.72 301.289 461.906 300.312 460.93C299.336 460.279 298.034 459.465 296.406 458.488C295.104 457.837 292.988 457.512 290.059 457.512C289.408 454.908 288.594 452.466 287.617 450.188C286.966 447.909 284.85 447.095 281.27 447.746C281.921 445.142 282.083 443.026 281.758 441.398C281.432 439.445 280.944 437.818 280.293 436.516C279.967 434.888 279.642 433.423 279.316 432.121C278.991 430.493 279.154 428.54 279.805 426.262C278.177 426.262 276.875 425.122 275.898 422.844C274.922 420.565 273.783 418.286 272.48 416.008C273.457 410.148 274.434 404.615 275.41 399.406C276.387 394.198 277.526 389.315 278.828 384.758C280.456 380.201 281.758 375.643 282.734 371.086C283.711 366.529 283.223 361.809 281.27 356.926C282.572 357.902 283.548 357.74 284.199 356.438C284.85 354.81 285.339 352.857 285.664 350.578C285.99 347.974 286.152 345.533 286.152 343.254C286.152 340.65 285.99 338.534 285.664 336.906C288.919 328.443 291.523 319.816 293.477 311.027C295.755 301.913 297.708 292.961 299.336 284.172C301.289 275.383 303.242 266.757 305.195 258.293C307.148 249.829 309.753 242.017 313.008 234.855C316.589 234.204 320.495 234.693 324.727 236.32C329.284 237.622 332.051 239.413 333.027 241.691C341.491 235.181 348.978 227.368 355.488 218.254C361.999 208.814 368.672 199.699 375.508 190.91C382.344 182.121 389.831 174.309 397.969 167.473C406.432 160.637 417.012 156.568 429.707 155.266C436.217 160.148 443.379 165.194 451.191 170.402C459.329 175.285 466.003 181.796 471.211 189.934C473.815 191.236 475.931 192.701 477.559 194.328C479.512 195.63 481.79 197.095 484.395 198.723V204.582C488.301 208.163 491.393 212.395 493.672 217.277C496.276 221.835 498.555 226.88 500.508 232.414C502.461 237.622 504.414 242.993 506.367 248.527C508.32 253.736 510.599 258.781 513.203 263.664C512.552 265.292 512.227 266.757 512.227 268.059C512.227 269.035 512.389 270.174 512.715 271.477C513.366 272.779 513.854 274.081 514.18 275.383C514.505 276.685 514.505 278.475 514.18 280.754C513.203 295.077 508.483 306.633 500.02 315.422C491.882 324.211 481.953 331.535 470.234 337.395C458.516 342.928 445.983 347.648 432.637 351.555C419.29 355.461 407.246 359.693 396.504 364.25C396.504 365.552 396.992 366.203 397.969 366.203C399.271 366.203 399.759 367.017 399.434 368.645C407.246 373.527 413.431 377.434 417.988 380.363C422.546 383.293 426.777 385.734 430.684 387.688C434.915 389.641 439.31 391.431 443.867 393.059C448.75 394.361 455.423 395.988 463.887 397.941C472.35 399.895 478.861 401.522 483.418 402.824C488.301 403.801 492.695 404.777 496.602 405.754C500.508 406.405 504.414 407.056 508.32 407.707C512.552 408.033 518.411 408.521 525.898 409.172C528.828 412.102 531.27 415.682 533.223 419.914C535.501 423.82 536.966 427.889 537.617 432.121C538.268 436.027 538.431 439.934 538.105 443.84C537.78 447.421 536.641 450.35 534.688 452.629C535.013 453.605 535.664 454.094 536.641 454.094C537.943 453.768 539.245 453.768 540.547 454.094C538.594 455.396 536.966 457.023 535.664 458.977C534.362 460.93 533.06 462.883 531.758 464.836C530.456 466.789 528.991 468.417 527.363 469.719C525.736 471.346 523.457 472.323 520.527 472.648C510.436 476.555 497.741 476.717 482.441 473.137C467.142 469.882 447.773 463.697 424.336 454.582C412.617 450.025 403.014 446.118 395.527 442.863C388.366 439.283 382.018 435.865 376.484 432.609C371.276 429.029 366.393 425.285 361.836 421.379C357.604 417.473 352.396 412.753 346.211 407.219ZM416.035 239.738C412.454 244.947 408.385 249.667 403.828 253.898C399.596 258.13 395.365 262.525 391.133 267.082C387.227 271.314 383.646 276.197 380.391 281.73C377.135 286.939 374.857 293.124 373.555 300.285C384.948 298.983 396.829 295.891 409.199 291.008C421.569 285.799 433.288 280.917 444.355 276.359C443.053 266.268 439.473 258.13 433.613 251.945C428.079 245.76 422.22 241.691 416.035 239.738ZM780.566 183.098C780.892 185.376 780.892 187.167 780.566 188.469C780.566 189.445 780.404 190.422 780.078 191.398C780.078 192.375 780.078 193.514 780.078 194.816C780.078 195.793 780.404 197.421 781.055 199.699C774.219 210.767 766.243 218.417 757.129 222.648C748.34 226.555 738.737 229.484 728.32 231.438C717.904 233.065 707.161 234.855 696.094 236.809C685.352 238.762 674.609 242.993 663.867 249.504C659.635 247.876 655.729 247.876 652.148 249.504C648.893 251.132 644.01 251.62 637.5 250.969C635.547 252.922 633.105 254.387 630.176 255.363C627.246 256.014 624.316 256.828 621.387 257.805C622.689 260.734 623.177 263.827 622.852 267.082C622.852 270.012 623.34 272.453 624.316 274.406C635.71 275.383 648.242 275.22 661.914 273.918C675.911 272.616 689.583 271.802 702.93 271.477C703.255 273.104 703.092 274.243 702.441 274.895C701.79 275.22 701.628 276.034 701.953 277.336C704.232 278.964 706.51 281.079 708.789 283.684C711.068 285.962 713.346 288.241 715.625 290.52C717.904 292.798 720.182 294.751 722.461 296.379C725.065 297.681 727.995 298.169 731.25 297.844C732.552 300.448 733.366 303.378 733.691 306.633C734.342 309.562 734.017 312.655 732.715 315.91C727.507 319.491 722.298 323.234 717.09 327.141C711.882 330.721 706.348 333.977 700.488 336.906C694.954 339.836 688.932 342.277 682.422 344.23C676.237 345.858 669.238 346.509 661.426 346.184C659.798 346.184 658.496 346.184 657.52 346.184C656.868 346.184 655.892 345.695 654.59 344.719C651.986 346.346 648.242 346.835 643.359 346.184C638.802 345.533 635.221 346.021 632.617 347.648C629.036 346.021 624.642 345.37 619.434 345.695C614.551 345.695 610.156 345.044 606.25 343.742C601.042 350.578 596.322 357.902 592.09 365.715C587.858 373.527 584.115 381.828 580.859 390.617C591.927 392.245 601.042 392.896 608.203 392.57C615.69 392.245 622.689 391.757 629.199 391.105C635.71 390.129 642.383 389.315 649.219 388.664C656.055 387.688 664.681 387.362 675.098 387.688C681.608 384.107 689.258 381.828 698.047 380.852C707.161 379.549 715.462 377.596 722.949 374.992C725.553 375.969 727.832 377.759 729.785 380.363C731.738 382.642 733.529 384.921 735.156 387.199C737.109 389.152 739.062 390.943 741.016 392.57C742.969 394.198 745.41 394.849 748.34 394.523C749.642 395.826 750.456 397.453 750.781 399.406C751.432 401.034 751.921 402.661 752.246 404.289C752.572 405.917 753.06 407.382 753.711 408.684C754.688 409.66 756.152 409.986 758.105 409.66C753.223 420.402 747.526 428.703 741.016 434.562C734.831 440.096 727.669 444.328 719.531 447.258C711.393 450.188 702.279 452.466 692.188 454.094C682.422 455.721 671.517 457.674 659.473 459.953C656.543 460.604 654.102 460.441 652.148 459.465C650.195 458.814 647.917 458.488 645.312 458.488C637.826 460.116 628.874 461.581 618.457 462.883C608.04 464.185 597.461 464.673 586.719 464.348C575.977 464.022 565.723 462.557 555.957 459.953C546.191 457.674 538.216 453.443 532.031 447.258C529.427 444.979 527.637 442.375 526.66 439.445C526.009 436.19 523.893 433.749 520.312 432.121C519.987 427.889 519.336 423.169 518.359 417.961C517.383 412.753 516.406 407.382 515.43 401.848C514.453 395.988 513.639 390.292 512.988 384.758C512.663 379.224 512.988 374.178 513.965 369.621C514.941 364.738 516.895 360.344 519.824 356.438C523.079 352.531 524.219 348.299 523.242 343.742C524.87 343.417 525.846 342.603 526.172 341.301C526.497 339.673 527.799 339.022 530.078 339.348C532.031 333.488 534.147 327.954 536.426 322.746C538.704 317.538 540.983 312.492 543.262 307.609C545.866 302.727 548.307 297.844 550.586 292.961C553.19 287.753 555.632 282.056 557.91 275.871C553.353 271.639 549.935 267.082 547.656 262.199C545.703 256.991 544.238 251.945 543.262 247.062C542.285 241.854 541.471 236.646 540.82 231.438C540.169 225.904 539.03 220.37 537.402 214.836C540.658 209.953 544.564 206.047 549.121 203.117C554.004 199.862 559.212 197.258 564.746 195.305C570.28 193.352 576.302 191.724 582.812 190.422C589.323 189.12 596.159 187.655 603.32 186.027C616.341 181.796 627.897 178.54 637.988 176.262C648.405 173.983 658.496 172.193 668.262 170.891C678.353 169.263 688.77 167.798 699.512 166.496C710.254 165.194 722.461 163.241 736.133 160.637C739.062 163.566 741.829 165.031 744.434 165.031C745.736 162.102 747.201 161.288 748.828 162.59C750.781 163.566 751.595 162.59 751.27 159.66C754.525 165.194 758.594 169.914 763.477 173.82C768.685 177.401 774.382 180.493 780.566 183.098ZM1011.31 183.098C1011.63 185.376 1011.63 187.167 1011.31 188.469C1011.31 189.445 1011.15 190.422 1010.82 191.398C1010.82 192.375 1010.82 193.514 1010.82 194.816C1010.82 195.793 1011.15 197.421 1011.8 199.699C1004.96 210.767 996.986 218.417 987.871 222.648C979.082 226.555 969.479 229.484 959.062 231.438C948.646 233.065 937.904 234.855 926.836 236.809C916.094 238.762 905.352 242.993 894.609 249.504C890.378 247.876 886.471 247.876 882.891 249.504C879.635 251.132 874.753 251.62 868.242 250.969C866.289 252.922 863.848 254.387 860.918 255.363C857.988 256.014 855.059 256.828 852.129 257.805C853.431 260.734 853.919 263.827 853.594 267.082C853.594 270.012 854.082 272.453 855.059 274.406C866.452 275.383 878.984 275.22 892.656 273.918C906.654 272.616 920.326 271.802 933.672 271.477C933.997 273.104 933.835 274.243 933.184 274.895C932.533 275.22 932.37 276.034 932.695 277.336C934.974 278.964 937.253 281.079 939.531 283.684C941.81 285.962 944.089 288.241 946.367 290.52C948.646 292.798 950.924 294.751 953.203 296.379C955.807 297.681 958.737 298.169 961.992 297.844C963.294 300.448 964.108 303.378 964.434 306.633C965.085 309.562 964.759 312.655 963.457 315.91C958.249 319.491 953.04 323.234 947.832 327.141C942.624 330.721 937.09 333.977 931.23 336.906C925.697 339.836 919.674 342.277 913.164 344.23C906.979 345.858 899.98 346.509 892.168 346.184C890.54 346.184 889.238 346.184 888.262 346.184C887.611 346.184 886.634 345.695 885.332 344.719C882.728 346.346 878.984 346.835 874.102 346.184C869.544 345.533 865.964 346.021 863.359 347.648C859.779 346.021 855.384 345.37 850.176 345.695C845.293 345.695 840.898 345.044 836.992 343.742C831.784 350.578 827.064 357.902 822.832 365.715C818.6 373.527 814.857 381.828 811.602 390.617C822.669 392.245 831.784 392.896 838.945 392.57C846.432 392.245 853.431 391.757 859.941 391.105C866.452 390.129 873.125 389.315 879.961 388.664C886.797 387.688 895.423 387.362 905.84 387.688C912.35 384.107 920 381.828 928.789 380.852C937.904 379.549 946.204 377.596 953.691 374.992C956.296 375.969 958.574 377.759 960.527 380.363C962.48 382.642 964.271 384.921 965.898 387.199C967.852 389.152 969.805 390.943 971.758 392.57C973.711 394.198 976.152 394.849 979.082 394.523C980.384 395.826 981.198 397.453 981.523 399.406C982.174 401.034 982.663 402.661 982.988 404.289C983.314 405.917 983.802 407.382 984.453 408.684C985.43 409.66 986.895 409.986 988.848 409.66C983.965 420.402 978.268 428.703 971.758 434.562C965.573 440.096 958.411 444.328 950.273 447.258C942.135 450.188 933.021 452.466 922.93 454.094C913.164 455.721 902.259 457.674 890.215 459.953C887.285 460.604 884.844 460.441 882.891 459.465C880.938 458.814 878.659 458.488 876.055 458.488C868.568 460.116 859.616 461.581 849.199 462.883C838.783 464.185 828.203 464.673 817.461 464.348C806.719 464.022 796.465 462.557 786.699 459.953C776.934 457.674 768.958 453.443 762.773 447.258C760.169 444.979 758.379 442.375 757.402 439.445C756.751 436.19 754.635 433.749 751.055 432.121C750.729 427.889 750.078 423.169 749.102 417.961C748.125 412.753 747.148 407.382 746.172 401.848C745.195 395.988 744.382 390.292 743.73 384.758C743.405 379.224 743.73 374.178 744.707 369.621C745.684 364.738 747.637 360.344 750.566 356.438C753.822 352.531 754.961 348.299 753.984 343.742C755.612 343.417 756.589 342.603 756.914 341.301C757.24 339.673 758.542 339.022 760.82 339.348C762.773 333.488 764.889 327.954 767.168 322.746C769.447 317.538 771.725 312.492 774.004 307.609C776.608 302.727 779.049 297.844 781.328 292.961C783.932 287.753 786.374 282.056 788.652 275.871C784.095 271.639 780.677 267.082 778.398 262.199C776.445 256.991 774.98 251.945 774.004 247.062C773.027 241.854 772.214 236.646 771.562 231.438C770.911 225.904 769.772 220.37 768.145 214.836C771.4 209.953 775.306 206.047 779.863 203.117C784.746 199.862 789.954 197.258 795.488 195.305C801.022 193.352 807.044 191.724 813.555 190.422C820.065 189.12 826.901 187.655 834.062 186.027C847.083 181.796 858.639 178.54 868.73 176.262C879.147 173.983 889.238 172.193 899.004 170.891C909.095 169.263 919.512 167.798 930.254 166.496C940.996 165.194 953.203 163.241 966.875 160.637C969.805 163.566 972.572 165.031 975.176 165.031C976.478 162.102 977.943 161.288 979.57 162.59C981.523 163.566 982.337 162.59 982.012 159.66C985.267 165.194 989.336 169.914 994.219 173.82C999.427 177.401 1005.12 180.493 1011.31 183.098ZM1043.32 407.219C1039.74 420.24 1036.48 430.168 1033.55 437.004C1030.95 443.514 1026.88 450.35 1021.35 457.512C1017.12 456.861 1014.19 457.349 1012.56 458.977C1010.93 460.604 1009.14 462.069 1007.19 463.371C1004.26 464.022 1002.14 464.022 1000.84 463.371C999.538 462.72 998.398 461.906 997.422 460.93C996.445 460.279 995.143 459.465 993.516 458.488C992.214 457.837 990.098 457.512 987.168 457.512C986.517 454.908 985.703 452.466 984.727 450.188C984.076 447.909 981.96 447.095 978.379 447.746C979.03 445.142 979.193 443.026 978.867 441.398C978.542 439.445 978.053 437.818 977.402 436.516C977.077 434.888 976.751 433.423 976.426 432.121C976.1 430.493 976.263 428.54 976.914 426.262C975.286 426.262 973.984 425.122 973.008 422.844C972.031 420.565 970.892 418.286 969.59 416.008C970.566 410.148 971.543 404.615 972.52 399.406C973.496 394.198 974.635 389.315 975.938 384.758C977.565 380.201 978.867 375.643 979.844 371.086C980.82 366.529 980.332 361.809 978.379 356.926C979.681 357.902 980.658 357.74 981.309 356.438C981.96 354.81 982.448 352.857 982.773 350.578C983.099 347.974 983.262 345.533 983.262 343.254C983.262 340.65 983.099 338.534 982.773 336.906C986.029 328.443 988.633 319.816 990.586 311.027C992.865 301.913 994.818 292.961 996.445 284.172C998.398 275.383 1000.35 266.757 1002.3 258.293C1004.26 249.829 1006.86 242.017 1010.12 234.855C1013.7 234.204 1017.6 234.693 1021.84 236.32C1026.39 237.622 1029.16 239.413 1030.14 241.691C1038.6 235.181 1046.09 227.368 1052.6 218.254C1059.11 208.814 1065.78 199.699 1072.62 190.91C1079.45 182.121 1086.94 174.309 1095.08 167.473C1103.54 160.637 1114.12 156.568 1126.82 155.266C1133.33 160.148 1140.49 165.194 1148.3 170.402C1156.44 175.285 1163.11 181.796 1168.32 189.934C1170.92 191.236 1173.04 192.701 1174.67 194.328C1176.62 195.63 1178.9 197.095 1181.5 198.723V204.582C1185.41 208.163 1188.5 212.395 1190.78 217.277C1193.39 221.835 1195.66 226.88 1197.62 232.414C1199.57 237.622 1201.52 242.993 1203.48 248.527C1205.43 253.736 1207.71 258.781 1210.31 263.664C1209.66 265.292 1209.34 266.757 1209.34 268.059C1209.34 269.035 1209.5 270.174 1209.82 271.477C1210.48 272.779 1210.96 274.081 1211.29 275.383C1211.61 276.685 1211.61 278.475 1211.29 280.754C1210.31 295.077 1205.59 306.633 1197.13 315.422C1188.99 324.211 1179.06 331.535 1167.34 337.395C1155.62 342.928 1143.09 347.648 1129.75 351.555C1116.4 355.461 1104.36 359.693 1093.61 364.25C1093.61 365.552 1094.1 366.203 1095.08 366.203C1096.38 366.203 1096.87 367.017 1096.54 368.645C1104.36 373.527 1110.54 377.434 1115.1 380.363C1119.65 383.293 1123.89 385.734 1127.79 387.688C1132.02 389.641 1136.42 391.431 1140.98 393.059C1145.86 394.361 1152.53 395.988 1161 397.941C1169.46 399.895 1175.97 401.522 1180.53 402.824C1185.41 403.801 1189.8 404.777 1193.71 405.754C1197.62 406.405 1201.52 407.056 1205.43 407.707C1209.66 408.033 1215.52 408.521 1223.01 409.172C1225.94 412.102 1228.38 415.682 1230.33 419.914C1232.61 423.82 1234.08 427.889 1234.73 432.121C1235.38 436.027 1235.54 439.934 1235.21 443.84C1234.89 447.421 1233.75 450.35 1231.8 452.629C1232.12 453.605 1232.77 454.094 1233.75 454.094C1235.05 453.768 1236.35 453.768 1237.66 454.094C1235.7 455.396 1234.08 457.023 1232.77 458.977C1231.47 460.93 1230.17 462.883 1228.87 464.836C1227.57 466.789 1226.1 468.417 1224.47 469.719C1222.85 471.346 1220.57 472.323 1217.64 472.648C1207.55 476.555 1194.85 476.717 1179.55 473.137C1164.25 469.882 1144.88 463.697 1121.45 454.582C1109.73 450.025 1100.12 446.118 1092.64 442.863C1085.48 439.283 1079.13 435.865 1073.59 432.609C1068.39 429.029 1063.5 425.285 1058.95 421.379C1054.71 417.473 1049.51 412.753 1043.32 407.219ZM1113.14 239.738C1109.56 244.947 1105.49 249.667 1100.94 253.898C1096.71 258.13 1092.47 262.525 1088.24 267.082C1084.34 271.314 1080.76 276.197 1077.5 281.73C1074.24 286.939 1071.97 293.124 1070.66 300.285C1082.06 298.983 1093.94 295.891 1106.31 291.008C1118.68 285.799 1130.4 280.917 1141.46 276.359C1140.16 266.268 1136.58 258.13 1130.72 251.945C1125.19 245.76 1119.33 241.691 1113.14 239.738ZM1308.73 423.82C1310.36 433.586 1309.71 441.236 1306.78 446.77C1304.17 452.303 1300.27 456.372 1295.06 458.977C1290.18 461.906 1284.48 463.534 1277.97 463.859C1271.46 464.185 1265.27 463.859 1259.41 462.883C1256.16 458.326 1253.23 452.629 1250.62 445.793C1248.02 438.957 1245.58 431.958 1243.3 424.797C1241.02 417.31 1238.91 409.986 1236.95 402.824C1235.33 395.663 1233.86 389.315 1232.56 383.781C1234.19 379.875 1235.16 375.48 1235.49 370.598C1236.14 365.389 1236.46 360.181 1236.46 354.973C1236.79 349.764 1236.95 344.556 1236.95 339.348C1237.28 333.814 1237.77 328.605 1238.42 323.723C1240.7 310.051 1243.95 297.03 1248.18 284.66C1252.74 272.29 1256.32 259.432 1258.93 246.086C1259.58 243.156 1259.25 240.389 1257.95 237.785C1256.97 235.181 1256.81 232.74 1257.46 230.461C1257.79 229.159 1258.76 228.345 1260.39 228.02C1262.02 227.368 1262.99 226.229 1263.32 224.602C1264.3 221.021 1264.46 218.091 1263.81 215.812C1263.48 213.534 1264.13 210.767 1265.76 207.512C1267.39 204.908 1269.34 201.164 1271.62 196.281C1274.23 191.073 1275.2 185.702 1274.55 180.168C1277.48 178.215 1280.25 175.936 1282.85 173.332C1285.46 170.728 1288.06 168.449 1290.66 166.496C1293.59 164.217 1296.69 162.264 1299.94 160.637C1303.52 159.009 1307.75 158.195 1312.64 158.195C1315.24 161.451 1316.87 165.031 1317.52 168.938C1318.5 172.844 1319.31 176.75 1319.96 180.656C1320.94 184.562 1322.24 188.306 1323.87 191.887C1325.49 195.142 1328.26 197.746 1332.17 199.699C1332.17 202.303 1332.17 205.559 1332.17 209.465C1332.17 213.371 1332.33 217.277 1332.66 221.184C1332.98 224.764 1333.63 228.182 1334.61 231.438C1335.91 234.367 1337.86 236.32 1340.47 237.297C1334.61 252.922 1329.08 268.384 1323.87 283.684C1318.98 298.983 1314.92 314.445 1311.66 330.07C1308.4 345.37 1306.29 360.832 1305.31 376.457C1304.66 392.082 1305.8 407.87 1308.73 423.82ZM1576.09 326.164C1575.77 327.792 1575.44 329.257 1575.12 330.559C1574.79 331.535 1574.47 332.512 1574.14 333.488C1573.82 334.465 1573.65 335.767 1573.65 337.395C1573.65 338.697 1573.65 340.487 1573.65 342.766C1563.89 360.018 1551.52 374.504 1536.54 386.223C1521.89 397.941 1505.62 408.358 1487.71 417.473C1470.14 426.262 1451.74 434.4 1432.54 441.887C1413.33 449.048 1394.62 456.861 1376.39 465.324C1368.57 463.371 1362.55 460.116 1358.32 455.559C1354.41 451.001 1351.32 445.793 1349.04 439.934C1347.09 433.749 1345.62 427.076 1344.65 419.914C1344 412.427 1343.35 404.777 1342.7 396.965C1343.67 393.384 1344.97 390.454 1346.6 388.176C1348.55 385.572 1349.53 381.991 1349.53 377.434C1352.14 368.97 1354.74 360.669 1357.34 352.531C1359.95 344.393 1361.58 336.092 1362.23 327.629C1363.2 325.025 1364.99 323.234 1367.6 322.258C1369.23 306.633 1369.23 290.845 1367.6 274.895C1366.3 258.618 1363.69 243.482 1359.79 229.484C1360.11 226.229 1360.44 223.951 1360.76 222.648C1361.41 221.021 1361.41 219.882 1360.76 219.23C1360.44 216.626 1361.25 215.324 1363.2 215.324C1365.48 215.324 1367.76 215.324 1370.04 215.324C1370.04 210.441 1369.06 205.559 1367.11 200.676C1365.48 195.793 1363.85 190.259 1362.23 184.074C1364.51 179.191 1365.97 174.471 1366.62 169.914C1367.27 165.031 1368.74 160.799 1371.02 157.219C1388.59 162.753 1405.36 169.426 1421.31 177.238C1437.58 185.051 1453.54 190.747 1469.16 194.328C1480.88 202.792 1492.92 211.255 1505.29 219.719C1517.66 227.857 1528.89 236.971 1538.98 247.062C1549.08 256.828 1557.54 268.059 1564.38 280.754C1571.21 293.449 1575.12 308.586 1576.09 326.164ZM1460.37 353.02C1467.21 350.415 1473.88 347.648 1480.39 344.719C1487.23 341.789 1493.41 338.534 1498.95 334.953C1504.8 331.047 1510.01 326.652 1514.57 321.77C1519.13 316.887 1522.87 311.027 1525.8 304.191C1523.85 300.285 1521.24 296.867 1517.99 293.938C1514.73 290.682 1511.48 287.753 1508.22 285.148C1504.97 282.219 1501.71 279.289 1498.46 276.359C1495.53 273.43 1493.09 269.849 1491.13 265.617C1486.9 264.966 1483.16 263.827 1479.9 262.199C1476.65 260.246 1473.39 258.456 1470.14 256.828C1467.21 254.875 1463.95 253.085 1460.37 251.457C1457.12 249.829 1453.21 248.853 1448.65 248.527C1441.49 244.947 1434.98 242.342 1429.12 240.715C1423.59 239.087 1419.36 236.971 1416.43 234.367C1414.15 234.367 1412.36 234.855 1411.05 235.832C1414.31 248.202 1416.75 259.921 1418.38 270.988C1420.01 281.73 1420.82 292.635 1420.82 303.703C1421.15 314.445 1420.66 325.513 1419.36 336.906C1418.05 348.299 1416.26 360.669 1413.98 374.016C1417.24 373.69 1420.17 373.039 1422.77 372.062C1425.7 370.76 1428.47 369.458 1431.07 368.156C1434 366.854 1436.93 365.715 1439.86 364.738C1443.12 363.436 1446.86 362.622 1451.09 362.297C1452.07 360.344 1453.37 358.716 1455 357.414C1456.95 356.112 1458.74 354.647 1460.37 353.02ZM1821.48 183.098C1821.81 185.376 1821.81 187.167 1821.48 188.469C1821.48 189.445 1821.32 190.422 1821 191.398C1821 192.375 1821 193.514 1821 194.816C1821 195.793 1821.32 197.421 1821.97 199.699C1815.14 210.767 1807.16 218.417 1798.05 222.648C1789.26 226.555 1779.65 229.484 1769.24 231.438C1758.82 233.065 1748.08 234.855 1737.01 236.809C1726.27 238.762 1715.53 242.993 1704.79 249.504C1700.55 247.876 1696.65 247.876 1693.07 249.504C1689.81 251.132 1684.93 251.62 1678.42 250.969C1676.46 252.922 1674.02 254.387 1671.09 255.363C1668.16 256.014 1665.23 256.828 1662.3 257.805C1663.61 260.734 1664.1 263.827 1663.77 267.082C1663.77 270.012 1664.26 272.453 1665.23 274.406C1676.63 275.383 1689.16 275.22 1702.83 273.918C1716.83 272.616 1730.5 271.802 1743.85 271.477C1744.17 273.104 1744.01 274.243 1743.36 274.895C1742.71 275.22 1742.55 276.034 1742.87 277.336C1745.15 278.964 1747.43 281.079 1749.71 283.684C1751.99 285.962 1754.26 288.241 1756.54 290.52C1758.82 292.798 1761.1 294.751 1763.38 296.379C1765.98 297.681 1768.91 298.169 1772.17 297.844C1773.47 300.448 1774.28 303.378 1774.61 306.633C1775.26 309.562 1774.93 312.655 1773.63 315.91C1768.42 319.491 1763.22 323.234 1758.01 327.141C1752.8 330.721 1747.27 333.977 1741.41 336.906C1735.87 339.836 1729.85 342.277 1723.34 344.23C1717.15 345.858 1710.16 346.509 1702.34 346.184C1700.72 346.184 1699.41 346.184 1698.44 346.184C1697.79 346.184 1696.81 345.695 1695.51 344.719C1692.9 346.346 1689.16 346.835 1684.28 346.184C1679.72 345.533 1676.14 346.021 1673.54 347.648C1669.95 346.021 1665.56 345.37 1660.35 345.695C1655.47 345.695 1651.07 345.044 1647.17 343.742C1641.96 350.578 1637.24 357.902 1633.01 365.715C1628.78 373.527 1625.03 381.828 1621.78 390.617C1632.85 392.245 1641.96 392.896 1649.12 392.57C1656.61 392.245 1663.61 391.757 1670.12 391.105C1676.63 390.129 1683.3 389.315 1690.14 388.664C1696.97 387.688 1705.6 387.362 1716.02 387.688C1722.53 384.107 1730.18 381.828 1738.96 380.852C1748.08 379.549 1756.38 377.596 1763.87 374.992C1766.47 375.969 1768.75 377.759 1770.7 380.363C1772.66 382.642 1774.45 384.921 1776.07 387.199C1778.03 389.152 1779.98 390.943 1781.93 392.57C1783.89 394.198 1786.33 394.849 1789.26 394.523C1790.56 395.826 1791.37 397.453 1791.7 399.406C1792.35 401.034 1792.84 402.661 1793.16 404.289C1793.49 405.917 1793.98 407.382 1794.63 408.684C1795.61 409.66 1797.07 409.986 1799.02 409.66C1794.14 420.402 1788.44 428.703 1781.93 434.562C1775.75 440.096 1768.59 444.328 1760.45 447.258C1752.31 450.188 1743.2 452.466 1733.11 454.094C1723.34 455.721 1712.43 457.674 1700.39 459.953C1697.46 460.604 1695.02 460.441 1693.07 459.465C1691.11 458.814 1688.83 458.488 1686.23 458.488C1678.74 460.116 1669.79 461.581 1659.38 462.883C1648.96 464.185 1638.38 464.673 1627.64 464.348C1616.89 464.022 1606.64 462.557 1596.88 459.953C1587.11 457.674 1579.13 453.443 1572.95 447.258C1570.35 444.979 1568.55 442.375 1567.58 439.445C1566.93 436.19 1564.81 433.749 1561.23 432.121C1560.9 427.889 1560.25 423.169 1559.28 417.961C1558.3 412.753 1557.32 407.382 1556.35 401.848C1555.37 395.988 1554.56 390.292 1553.91 384.758C1553.58 379.224 1553.91 374.178 1554.88 369.621C1555.86 364.738 1557.81 360.344 1560.74 356.438C1564 352.531 1565.14 348.299 1564.16 343.742C1565.79 343.417 1566.76 342.603 1567.09 341.301C1567.42 339.673 1568.72 339.022 1571 339.348C1572.95 333.488 1575.07 327.954 1577.34 322.746C1579.62 317.538 1581.9 312.492 1584.18 307.609C1586.78 302.727 1589.23 297.844 1591.5 292.961C1594.11 287.753 1596.55 282.056 1598.83 275.871C1594.27 271.639 1590.85 267.082 1588.57 262.199C1586.62 256.991 1585.16 251.945 1584.18 247.062C1583.2 241.854 1582.39 236.646 1581.74 231.438C1581.09 225.904 1579.95 220.37 1578.32 214.836C1581.58 209.953 1585.48 206.047 1590.04 203.117C1594.92 199.862 1600.13 197.258 1605.66 195.305C1611.2 193.352 1617.22 191.724 1623.73 190.422C1630.24 189.12 1637.08 187.655 1644.24 186.027C1657.26 181.796 1668.82 178.54 1678.91 176.262C1689.32 173.983 1699.41 172.193 1709.18 170.891C1719.27 169.263 1729.69 167.798 1740.43 166.496C1751.17 165.194 1763.38 163.241 1777.05 160.637C1779.98 163.566 1782.75 165.031 1785.35 165.031C1786.65 162.102 1788.12 161.288 1789.75 162.59C1791.7 163.566 1792.51 162.59 1792.19 159.66C1795.44 165.194 1799.51 169.914 1804.39 173.82C1809.6 177.401 1815.3 180.493 1821.48 183.098ZM1853.5 407.219C1849.92 420.24 1846.66 430.168 1843.73 437.004C1841.13 443.514 1837.06 450.35 1831.52 457.512C1827.29 456.861 1824.36 457.349 1822.73 458.977C1821.11 460.604 1819.32 462.069 1817.36 463.371C1814.43 464.022 1812.32 464.022 1811.02 463.371C1809.71 462.72 1808.57 461.906 1807.6 460.93C1806.62 460.279 1805.32 459.465 1803.69 458.488C1802.39 457.837 1800.27 457.512 1797.34 457.512C1796.69 454.908 1795.88 452.466 1794.9 450.188C1794.25 447.909 1792.14 447.095 1788.55 447.746C1789.21 445.142 1789.37 443.026 1789.04 441.398C1788.72 439.445 1788.23 437.818 1787.58 436.516C1787.25 434.888 1786.93 433.423 1786.6 432.121C1786.28 430.493 1786.44 428.54 1787.09 426.262C1785.46 426.262 1784.16 425.122 1783.18 422.844C1782.21 420.565 1781.07 418.286 1779.77 416.008C1780.74 410.148 1781.72 404.615 1782.7 399.406C1783.67 394.198 1784.81 389.315 1786.11 384.758C1787.74 380.201 1789.04 375.643 1790.02 371.086C1791 366.529 1790.51 361.809 1788.55 356.926C1789.86 357.902 1790.83 357.74 1791.48 356.438C1792.14 354.81 1792.62 352.857 1792.95 350.578C1793.27 347.974 1793.44 345.533 1793.44 343.254C1793.44 340.65 1793.27 338.534 1792.95 336.906C1796.2 328.443 1798.81 319.816 1800.76 311.027C1803.04 301.913 1804.99 292.961 1806.62 284.172C1808.57 275.383 1810.53 266.757 1812.48 258.293C1814.43 249.829 1817.04 242.017 1820.29 234.855C1823.87 234.204 1827.78 234.693 1832.01 236.32C1836.57 237.622 1839.34 239.413 1840.31 241.691C1848.78 235.181 1856.26 227.368 1862.77 218.254C1869.28 208.814 1875.96 199.699 1882.79 190.91C1889.63 182.121 1897.12 174.309 1905.25 167.473C1913.72 160.637 1924.3 156.568 1936.99 155.266C1943.5 160.148 1950.66 165.194 1958.48 170.402C1966.61 175.285 1973.29 181.796 1978.5 189.934C1981.1 191.236 1983.22 192.701 1984.84 194.328C1986.8 195.63 1989.08 197.095 1991.68 198.723V204.582C1995.59 208.163 1998.68 212.395 2000.96 217.277C2003.56 221.835 2005.84 226.88 2007.79 232.414C2009.75 237.622 2011.7 242.993 2013.65 248.527C2015.61 253.736 2017.88 258.781 2020.49 263.664C2019.84 265.292 2019.51 266.757 2019.51 268.059C2019.51 269.035 2019.67 270.174 2020 271.477C2020.65 272.779 2021.14 274.081 2021.46 275.383C2021.79 276.685 2021.79 278.475 2021.46 280.754C2020.49 295.077 2015.77 306.633 2007.3 315.422C1999.17 324.211 1989.24 331.535 1977.52 337.395C1965.8 342.928 1953.27 347.648 1939.92 351.555C1926.58 355.461 1914.53 359.693 1903.79 364.25C1903.79 365.552 1904.28 366.203 1905.25 366.203C1906.56 366.203 1907.04 367.017 1906.72 368.645C1914.53 373.527 1920.72 377.434 1925.27 380.363C1929.83 383.293 1934.06 385.734 1937.97 387.688C1942.2 389.641 1946.6 391.431 1951.15 393.059C1956.04 394.361 1962.71 395.988 1971.17 397.941C1979.64 399.895 1986.15 401.522 1990.7 402.824C1995.59 403.801 1999.98 404.777 2003.89 405.754C2007.79 406.405 2011.7 407.056 2015.61 407.707C2019.84 408.033 2025.7 408.521 2033.18 409.172C2036.11 412.102 2038.55 415.682 2040.51 419.914C2042.79 423.82 2044.25 427.889 2044.9 432.121C2045.55 436.027 2045.72 439.934 2045.39 443.84C2045.07 447.421 2043.93 450.35 2041.97 452.629C2042.3 453.605 2042.95 454.094 2043.93 454.094C2045.23 453.768 2046.53 453.768 2047.83 454.094C2045.88 455.396 2044.25 457.023 2042.95 458.977C2041.65 460.93 2040.35 462.883 2039.04 464.836C2037.74 466.789 2036.28 468.417 2034.65 469.719C2033.02 471.346 2030.74 472.323 2027.81 472.648C2017.72 476.555 2005.03 476.717 1989.73 473.137C1974.43 469.882 1955.06 463.697 1931.62 454.582C1919.9 450.025 1910.3 446.118 1902.81 442.863C1895.65 439.283 1889.3 435.865 1883.77 432.609C1878.56 429.029 1873.68 425.285 1869.12 421.379C1864.89 417.473 1859.68 412.753 1853.5 407.219ZM1923.32 239.738C1919.74 244.947 1915.67 249.667 1911.11 253.898C1906.88 258.13 1902.65 262.525 1898.42 267.082C1894.51 271.314 1890.93 276.197 1887.68 281.73C1884.42 286.939 1882.14 293.124 1880.84 300.285C1892.23 298.983 1904.11 295.891 1916.48 291.008C1928.85 285.799 1940.57 280.917 1951.64 276.359C1950.34 266.268 1946.76 258.13 1940.9 251.945C1935.36 245.76 1929.51 241.691 1923.32 239.738Z" fill="black"/>
</svg>
